<svg width="133" height="20" viewBox="0 0 133 20" fill="none" xmlns="http://www.w3.org/2000/svg">
<path d="M0.517045 19V1.54545H12.0739V4.58807H4.20739V8.74716H11.3068V11.7898H4.20739V19H0.517045ZM14.277 19V5.90909H17.7969V8.19318H17.9332C18.1719 7.38068 18.5724 6.76705 19.1349 6.35227C19.6974 5.93182 20.3452 5.72159 21.0781 5.72159C21.2599 5.72159 21.456 5.73295 21.6662 5.75568C21.8764 5.77841 22.0611 5.80966 22.2202 5.84943V9.07102C22.0497 9.01989 21.8139 8.97443 21.5128 8.93466C21.2116 8.89489 20.9361 8.875 20.6861 8.875C20.152 8.875 19.6747 8.99148 19.2543 9.22443C18.8395 9.4517 18.5099 9.76989 18.2656 10.179C18.027 10.5881 17.9077 11.0597 17.9077 11.5938V19H14.277ZM29.4538 19.2557C28.1072 19.2557 26.9482 18.983 25.9766 18.4375C25.0107 17.8864 24.2663 17.108 23.7436 16.1023C23.2209 15.0909 22.9595 13.8949 22.9595 12.5142C22.9595 11.1676 23.2209 9.9858 23.7436 8.96875C24.2663 7.9517 25.0021 7.15909 25.951 6.59091C26.9055 6.02273 28.0249 5.73864 29.3089 5.73864C30.1726 5.73864 30.9766 5.87784 31.7209 6.15625C32.4709 6.42898 33.1243 6.84091 33.6811 7.39205C34.2436 7.94318 34.6811 8.63636 34.9936 9.47159C35.3061 10.3011 35.4624 11.2727 35.4624 12.3864V13.3835H24.4084V11.1335H32.0447C32.0447 10.6108 31.9311 10.1477 31.7038 9.74432C31.4766 9.34091 31.1612 9.02557 30.7578 8.7983C30.3601 8.56534 29.897 8.44886 29.3686 8.44886C28.8175 8.44886 28.3288 8.5767 27.9027 8.83239C27.4822 9.08239 27.1527 9.42045 26.9141 9.84659C26.6754 10.267 26.5533 10.7358 26.5476 11.2528V13.392C26.5476 14.0398 26.6669 14.5994 26.9055 15.071C27.1499 15.5426 27.4936 15.9062 27.9368 16.1619C28.38 16.4176 28.9055 16.5455 29.5135 16.5455C29.9169 16.5455 30.2862 16.4886 30.6214 16.375C30.9567 16.2614 31.2436 16.0909 31.4822 15.8636C31.7209 15.6364 31.9027 15.358 32.0277 15.0284L35.3857 15.25C35.2152 16.0568 34.8658 16.7614 34.3374 17.3636C33.8146 17.9602 33.1385 18.4261 32.3089 18.7614C31.4851 19.0909 30.5334 19.2557 29.4538 19.2557ZM43.7976 19.2557C42.451 19.2557 41.2919 18.983 40.3203 18.4375C39.3544 17.8864 38.6101 17.108 38.0874 16.1023C37.5646 15.0909 37.3033 13.8949 37.3033 12.5142C37.3033 11.1676 37.5646 9.9858 38.0874 8.96875C38.6101 7.9517 39.3459 7.15909 40.2947 6.59091C41.2493 6.02273 42.3686 5.73864 43.6527 5.73864C44.5163 5.73864 45.3203 5.87784 46.0646 6.15625C46.8146 6.42898 47.468 6.84091 48.0249 7.39205C48.5874 7.94318 49.0249 8.63636 49.3374 9.47159C49.6499 10.3011 49.8061 11.2727 49.8061 12.3864V13.3835H38.7521V11.1335H46.3885C46.3885 10.6108 46.2749 10.1477 46.0476 9.74432C45.8203 9.34091 45.505 9.02557 45.1016 8.7983C44.7038 8.56534 44.2408 8.44886 43.7124 8.44886C43.1612 8.44886 42.6726 8.5767 42.2464 8.83239C41.826 9.08239 41.4964 9.42045 41.2578 9.84659C41.0192 10.267 40.897 10.7358 40.8913 11.2528V13.392C40.8913 14.0398 41.0107 14.5994 41.2493 15.071C41.4936 15.5426 41.8374 15.9062 42.2805 16.1619C42.7237 16.4176 43.2493 16.5455 43.8572 16.5455C44.2607 16.5455 44.63 16.4886 44.9652 16.375C45.3004 16.2614 45.5874 16.0909 45.826 15.8636C46.0646 15.6364 46.2464 15.358 46.3714 15.0284L49.7294 15.25C49.5589 16.0568 49.2095 16.7614 48.6811 17.3636C48.1584 17.9602 47.4822 18.4261 46.6527 18.7614C45.8288 19.0909 44.8771 19.2557 43.7976 19.2557ZM85.4567 19V5.90909H89.0874V19H85.4567ZM87.2805 4.22159C86.7408 4.22159 86.2777 4.04261 85.8913 3.68466C85.5107 3.32102 85.3203 2.88636 85.3203 2.38068C85.3203 1.88068 85.5107 1.4517 85.8913 1.09375C86.2777 0.730113 86.7408 0.548295 87.2805 0.548295C87.8203 0.548295 88.2805 0.730113 88.6612 1.09375C89.0476 1.4517 89.2408 1.88068 89.2408 2.38068C89.2408 2.88636 89.0476 3.32102 88.6612 3.68466C88.2805 4.04261 87.8203 4.22159 87.2805 4.22159ZM97.9105 19.2557C96.5696 19.2557 95.4162 18.9716 94.4503 18.4034C93.4901 17.8295 92.7514 17.0341 92.2344 16.017C91.723 15 91.4673 13.8295 91.4673 12.5057C91.4673 11.1648 91.7259 9.98864 92.2429 8.97727C92.7656 7.96023 93.5071 7.16761 94.4673 6.59943C95.4276 6.02557 96.5696 5.73864 97.8935 5.73864C99.0355 5.73864 100.036 5.94602 100.893 6.36079C101.751 6.77557 102.43 7.35795 102.93 8.10795C103.43 8.85795 103.706 9.73864 103.757 10.75H100.331C100.234 10.0966 99.9787 9.57102 99.5639 9.1733C99.1548 8.76989 98.6179 8.56818 97.9531 8.56818C97.3906 8.56818 96.8991 8.72159 96.4787 9.02841C96.0639 9.32955 95.7401 9.76989 95.5071 10.3494C95.2741 10.929 95.1577 11.6307 95.1577 12.4545C95.1577 13.2898 95.2713 14 95.4986 14.5852C95.7315 15.1705 96.0582 15.6165 96.4787 15.9233C96.8991 16.2301 97.3906 16.3835 97.9531 16.3835C98.3679 16.3835 98.7401 16.2983 99.0696 16.1278C99.4048 15.9574 99.6804 15.7102 99.8963 15.3864C100.118 15.0568 100.263 14.6619 100.331 14.2017H103.757C103.7 15.2017 103.428 16.0824 102.939 16.8438C102.456 17.5994 101.788 18.1903 100.936 18.6165C100.084 19.0426 99.0753 19.2557 97.9105 19.2557ZM111.996 19.2557C110.673 19.2557 109.528 18.9744 108.562 18.4119C107.602 17.8437 106.86 17.054 106.337 16.0426C105.815 15.0256 105.553 13.8466 105.553 12.5057C105.553 11.1534 105.815 9.97159 106.337 8.96023C106.86 7.94318 107.602 7.15341 108.562 6.59091C109.528 6.02273 110.673 5.73864 111.996 5.73864C113.32 5.73864 114.462 6.02273 115.423 6.59091C116.388 7.15341 117.133 7.94318 117.656 8.96023C118.178 9.97159 118.44 11.1534 118.44 12.5057C118.44 13.8466 118.178 15.0256 117.656 16.0426C117.133 17.054 116.388 17.8437 115.423 18.4119C114.462 18.9744 113.32 19.2557 111.996 19.2557ZM112.013 16.4432C112.616 16.4432 113.119 16.2727 113.522 15.9318C113.925 15.5852 114.229 15.1136 114.434 14.517C114.644 13.9205 114.749 13.2415 114.749 12.4801C114.749 11.7188 114.644 11.0398 114.434 10.4432C114.229 9.84659 113.925 9.375 113.522 9.02841C113.119 8.68182 112.616 8.50852 112.013 8.50852C111.406 8.50852 110.894 8.68182 110.479 9.02841C110.07 9.375 109.761 9.84659 109.55 10.4432C109.346 11.0398 109.244 11.7188 109.244 12.4801C109.244 13.2415 109.346 13.9205 109.55 14.517C109.761 15.1136 110.07 15.5852 110.479 15.9318C110.894 16.2727 111.406 16.4432 112.013 16.4432ZM124.431 11.4318V19H120.8V5.90909H124.261V8.21875H124.414C124.704 7.45739 125.19 6.85511 125.871 6.41193C126.553 5.96307 127.38 5.73864 128.352 5.73864C129.261 5.73864 130.053 5.9375 130.729 6.33523C131.406 6.73295 131.931 7.30114 132.306 8.03977C132.681 8.77273 132.869 9.64773 132.869 10.6648V19H129.238V11.3125C129.244 10.5114 129.039 9.88636 128.624 9.4375C128.21 8.98295 127.638 8.75568 126.911 8.75568C126.423 8.75568 125.991 8.8608 125.616 9.07102C125.246 9.28125 124.957 9.58807 124.746 9.99148C124.542 10.3892 124.437 10.8693 124.431 11.4318Z" fill="#202D51"/>
<path d="M58.593 19.2386C57.3203 19.2386 56.1868 19.0199 55.1925 18.5824C54.2038 18.1392 53.4226 17.5312 52.8487 16.7585C52.2805 15.9801 51.9879 15.0824 51.9709 14.0653H55.6868C55.7095 14.4915 55.8487 14.8665 56.1044 15.1903C56.3658 15.5085 56.7124 15.7557 57.1442 15.9318C57.576 16.108 58.0618 16.196 58.6016 16.196C59.1641 16.196 59.6612 16.0966 60.093 15.8977C60.5249 15.6989 60.8629 15.4233 61.1072 15.071C61.3516 14.7187 61.4737 14.3125 61.4737 13.8523C61.4737 13.3864 61.343 12.9744 61.0817 12.6165C60.826 12.2528 60.4567 11.9687 59.9737 11.7642C59.4964 11.5597 58.9283 11.4574 58.2692 11.4574H56.6413V8.74716H58.2692C58.826 8.74716 59.3175 8.65057 59.7436 8.45739C60.1754 8.2642 60.5107 7.99716 60.7493 7.65625C60.9879 7.30966 61.1072 6.90625 61.1072 6.44602C61.1072 6.00852 61.0021 5.625 60.7919 5.29545C60.5874 4.96023 60.2976 4.69886 59.9226 4.51136C59.5533 4.32386 59.1214 4.23011 58.6271 4.23011C58.1271 4.23011 57.6697 4.32102 57.255 4.50284C56.8402 4.67898 56.5078 4.93182 56.2578 5.26136C56.0078 5.59091 55.8743 5.97727 55.8572 6.42045H52.3203C52.3374 5.41477 52.6243 4.52841 53.1811 3.76136C53.7379 2.99432 54.4879 2.39489 55.4311 1.96307C56.38 1.52557 57.451 1.30682 58.6442 1.30682C59.8487 1.30682 60.9027 1.52557 61.8061 1.96307C62.7095 2.40057 63.4112 2.99148 63.9112 3.73579C64.4169 4.47443 64.6669 5.30398 64.6612 6.22443C64.6669 7.2017 64.3629 8.01705 63.7493 8.67045C63.1413 9.32386 62.3487 9.73864 61.3714 9.91477V10.0511C62.6555 10.2159 63.6328 10.6619 64.3033 11.3892C64.9794 12.1108 65.3146 13.0142 65.3089 14.0994C65.3146 15.0938 65.0277 15.9773 64.4482 16.75C63.8743 17.5227 63.0817 18.1307 62.0703 18.5739C61.0589 19.017 59.8999 19.2386 58.593 19.2386ZM74.2514 19H68.0639V1.54545H74.3026C76.0582 1.54545 77.5696 1.89489 78.8366 2.59375C80.1037 3.28693 81.0781 4.28409 81.7599 5.58523C82.4474 6.88636 82.7912 8.44318 82.7912 10.2557C82.7912 12.0739 82.4474 13.6364 81.7599 14.9432C81.0781 16.25 80.098 17.2528 78.8196 17.9517C77.5469 18.6506 76.0241 19 74.2514 19ZM71.7543 15.8381H74.098C75.1889 15.8381 76.1065 15.6449 76.8509 15.2585C77.6009 14.8665 78.1634 14.2614 78.5384 13.4432C78.919 12.6193 79.1094 11.5568 79.1094 10.2557C79.1094 8.96591 78.919 7.91193 78.5384 7.09375C78.1634 6.27557 77.6037 5.6733 76.8594 5.28693C76.1151 4.90057 75.1974 4.70739 74.1065 4.70739H71.7543V15.8381Z" fill="#3952FF"/>
</svg>
