<svg width="87" height="36" viewBox="0 0 87 36" fill="none" xmlns="http://www.w3.org/2000/svg">
<path d="M6.11417 14.0441C6.11417 13.111 6.8875 12.7521 8.16833 12.7521C10.005 12.7521 12.325 13.3024 14.1617 14.2834V8.66093C12.1558 7.8714 10.1742 7.56037 8.16833 7.56037C3.2625 7.56037 0 10.0964 0 14.3312C0 20.9346 9.18333 19.8819 9.18333 22.729C9.18333 23.8295 8.21667 24.1884 6.86333 24.1884C4.8575 24.1884 2.29583 23.375 0.265833 22.2744V27.9686C2.51333 28.9256 4.785 29.3323 6.86333 29.3323C11.89 29.3323 15.3458 26.868 15.3458 22.5854C15.3217 15.4557 6.11417 16.7237 6.11417 14.0441ZM22.4508 2.77533L16.5542 4.01944L16.53 23.1836C16.53 26.7245 19.2125 29.3323 22.7892 29.3323C24.7708 29.3323 26.2208 28.9735 27.0183 28.5428V23.686C26.245 23.997 22.4267 25.0976 22.4267 21.5566V13.0632H27.0183V7.9671H22.4267L22.4508 2.77533ZM34.5342 9.73757L34.1475 7.9671H28.9275V28.9017H34.9692V14.714C36.395 12.8718 38.8117 13.2067 39.5608 13.4699V7.9671C38.7875 7.68 35.96 7.15365 34.5342 9.73757ZM41.035 7.9671H47.1008V28.9017H41.035V7.9671ZM41.035 6.14879L47.1008 4.85682V0L41.035 1.26804V6.14879ZM59.7158 7.56037C57.3475 7.56037 55.825 8.66094 54.9792 9.42654L54.665 7.94318H49.3483V35.84L55.39 34.572L55.4142 27.8011C56.2842 28.4232 57.565 29.3084 59.6917 29.3084C64.0175 29.3084 67.9567 25.8632 67.9567 18.2789C67.9325 11.3406 63.945 7.56037 59.7158 7.56037ZM58.2658 24.0449C56.84 24.0449 55.9942 23.5424 55.4142 22.9204L55.39 14.0441C56.0183 13.3503 56.8883 12.8718 58.2658 12.8718C60.465 12.8718 61.9875 15.3122 61.9875 18.4464C61.9875 21.6523 60.4892 24.0449 58.2658 24.0449ZM87 18.5181C87 12.3933 84.0033 7.56037 78.2758 7.56037C72.5242 7.56037 69.0442 12.3933 69.0442 18.4703C69.0442 25.6718 73.1525 29.3084 79.0492 29.3084C81.925 29.3084 84.1 28.6624 85.7433 27.7533V22.9682C84.1 23.7817 82.215 24.2841 79.8225 24.2841C77.4783 24.2841 75.4 23.4707 75.1342 20.6475H86.9517C86.9517 20.3364 87 19.0923 87 18.5181ZM75.0617 16.2452C75.0617 13.5417 76.7292 12.4172 78.2517 12.4172C79.7258 12.4172 81.2967 13.5417 81.2967 16.2452H75.0617Z" fill="white"/>
</svg>
