<?xml version="1.0" encoding="utf-8"?><svg xmlns="http://www.w3.org/2000/svg" xmlns:xlink="http://www.w3.org/1999/xlink"><symbol viewBox="0 0 12 12" id="arrow" xmlns="http://www.w3.org/2000/svg"><g clip-path="url(#aclip0_1456_41)"><path d="M6.468 9.334l5.34-5.34A.652.652 0 0012 3.528a.652.652 0 00-.192-.464l-.393-.393a.657.657 0 00-.928 0L6.002 7.156l-4.489-4.49a.652.652 0 00-.464-.19.653.653 0 00-.464.19l-.393.394A.652.652 0 000 3.524c0 .176.068.34.192.464l5.345 5.346c.124.123.29.191.465.191a.652.652 0 00.466-.191z"/></g><defs><clipPath id="aclip0_1456_41"><path transform="rotate(90 6 6)" d="M0 0h12v12H0z"/></clipPath></defs></symbol><symbol viewBox="0 0 9 6" id="arrowLeft" xmlns="http://www.w3.org/2000/svg"><path d="M1.783 2.764a1.84 1.84 0 01-.474.233c.172.056.33.134.474.233l1.673 1.21c.07.048.121.108.152.181.03.074.046.154.046.24V6L0 3.32v-.647L3.654 0v1.14a.614.614 0 01-.046.239.455.455 0 01-.152.18L1.783 2.765zm5.347 0a1.84 1.84 0 01-.475.233c.172.056.33.134.474.233l1.673 1.21c.07.048.121.108.152.181.03.074.046.154.046.24V6L5.346 3.32v-.647L9 0v1.14a.614.614 0 01-.046.239.455.455 0 01-.152.18L7.129 2.765z"/></symbol><symbol viewBox="0 0 24 24" id="arrowRight" xmlns="http://www.w3.org/2000/svg"><g clip-path="url(#cclip0_1456_304)"><path d="M23.725 11.336l-4.9-4.876a.938.938 0 00-1.322 1.33l3.289 3.272H.937a.937.937 0 100 1.876h19.855l-3.29 3.272a.937.937 0 101.324 1.33l4.898-4.875.001-.001a.938.938 0 000-1.328z"/></g><defs><clipPath id="cclip0_1456_304"><path d="M0 0h24v24H0z"/></clipPath></defs></symbol><symbol viewBox="0 0 16 16" id="attention" xmlns="http://www.w3.org/2000/svg"><g clip-path="url(#dclip0_1279_670)"><path d="M15.68 11.658l-5.605-9.71c-.916-1.603-3.231-1.603-4.143 0l-5.61 9.71c-.915 1.604.225 3.596 2.072 3.596H13.59c1.847 0 3.007-2.012 2.091-3.596zM8 13.1a.9.9 0 01-.893-.892.9.9 0 01.893-.893c.487 0 .892.405.873.916.023.464-.406.87-.873.87zm.813-5.77l-.122 2.072c-.02.224-.02.428-.02.649A.672.672 0 018 10.7a.658.658 0 01-.672-.63c-.06-1.077-.122-2.134-.181-3.21-.02-.284-.04-.57-.063-.854 0-.467.264-.853.692-.975a.895.895 0 011.037.508c.063.141.083.283.083.448-.02.45-.063.899-.083 1.343z"/></g><defs><clipPath id="dclip0_1279_670"><path d="M0 0h16v16H0z"/></clipPath></defs></symbol><symbol viewBox="0 0 24 22" id="basket" xmlns="http://www.w3.org/2000/svg"><path d="M10.594 21.547a2.11 2.11 0 100-4.219 2.11 2.11 0 000 4.219zm7.078 0a2.11 2.11 0 100-4.219 2.11 2.11 0 000 4.219z"/><path d="M.703 1.86h2.932L7.03 13.742l-.266.532c-.701 1.4.316 3.053 1.886 3.053h11.834a.703.703 0 100-1.406H8.65a.703.703 0 01-.628-1.018l.194-.388h12.268c.314 0 .59-.208.677-.51l2.812-9.844a.705.705 0 00-.676-.896H5.499L4.842.963a.704.704 0 00-.677-.51H.703a.703.703 0 100 1.406z"/></symbol><symbol viewBox="0 0 16 16" id="check" xmlns="http://www.w3.org/2000/svg"><g clip-path="url(#fclip0_1279_649)"><path d="M15.628 2.615a1.269 1.269 0 00-1.794 0l-8.077 8.077-3.59-3.59A1.27 1.27 0 10.372 8.898l4.487 4.488a1.265 1.265 0 001.795 0l8.974-8.975a1.27 1.27 0 000-1.795z"/></g><defs><clipPath id="fclip0_1279_649"><path d="M0 0h16v16H0z"/></clipPath></defs></symbol><symbol viewBox="0 0 12 12" id="close" xmlns="http://www.w3.org/2000/svg"><g clip-path="url(#gclip0_1279_3168)"><path d="M1.138 11.925a1.137 1.137 0 01-.807-.273 1.137 1.137 0 010-1.603L9.98.4a1.137 1.137 0 011.66 1.546l-9.708 9.707c-.22.19-.505.287-.795.273z"/><path d="M10.777 11.925a1.137 1.137 0 01-.796-.33l-9.65-9.65A1.137 1.137 0 011.934.342l9.707 9.65a1.137 1.137 0 010 1.66c-.238.207-.55.306-.864.273z"/></g><defs><clipPath id="gclip0_1279_3168"><path d="M0 0h12v12H0z"/></clipPath></defs></symbol><symbol viewBox="0 0 16 18" id="download" xmlns="http://www.w3.org/2000/svg"><path d="M16 17a1 1 0 01-1 1H1a1 1 0 110-2h14a1 1 0 011 1zm-8.707-3.168a.997.997 0 001.414 0l3.543-3.543a1 1 0 00-1.414-1.414L9 10.71V3a1 1 0 00-2 0v7.71L5.164 8.876A1 1 0 103.75 10.29l3.543 3.543z"/></symbol><symbol viewBox="0 0 24 24" id="eye" xmlns="http://www.w3.org/2000/svg"><g clip-path="url(#iclip0_1456_124)"><path d="M23.876 11.69c-.036-.09-.906-2.236-2.78-4.4C18.571 4.38 15.425 2.84 12 2.84c-3.427 0-6.572 1.539-9.095 4.45C1.03 9.455.16 11.6.124 11.69L0 12l.124.31c.036.09.906 2.236 2.78 4.399C5.429 19.621 8.575 21.16 12 21.16c3.427 0 6.572-1.54 9.095-4.451 1.875-2.163 2.745-4.31 2.781-4.4L24 12l-.124-.308zM12 17.83A5.836 5.836 0 016.17 12 5.836 5.836 0 0112 6.17 5.836 5.836 0 0117.83 12 5.836 5.836 0 0112 17.83z"/><path d="M7.836 12A4.168 4.168 0 0112 7.836 4.168 4.168 0 0116.163 12 4.168 4.168 0 0112 16.163 4.168 4.168 0 017.836 12z"/></g><defs><clipPath id="iclip0_1456_124"><path d="M0 0h24v24H0z"/></clipPath></defs></symbol><symbol viewBox="0 0 18 18" id="lock" xmlns="http://www.w3.org/2000/svg"><path d="M3.512 18h10.973c.786 0 1.425-.64 1.425-1.425V8.71c0-.786-.64-1.426-1.425-1.426h-.037v-1.88A5.41 5.41 0 009.044 0 5.41 5.41 0 003.64 5.404v1.88h-.125c-.786 0-1.425.64-1.425 1.426v7.865A1.421 1.421 0 003.512 18zm2.49-12.596a3.045 3.045 0 013.042-3.042 3.045 3.045 0 013.042 3.042v1.88H6.002v-1.88z"/></symbol><symbol viewBox="0 0 24 24" id="loupe" xmlns="http://www.w3.org/2000/svg"><g clip-path="url(#kclip0_1165_3056)"><path d="M23.707 22.293l-6.825-6.825A9.454 9.454 0 0019 9.5C19 4.262 14.738 0 9.5 0S0 4.262 0 9.5 4.262 19 9.5 19c2.26 0 4.335-.796 5.968-2.118l6.825 6.825a.997.997 0 001.414 0 .999.999 0 000-1.414zM9.5 17C5.364 17 2 13.636 2 9.5S5.364 2 9.5 2 17 5.364 17 9.5 13.636 17 9.5 17z"/></g><defs><clipPath id="kclip0_1165_3056"><path d="M0 0h24v24H0z"/></clipPath></defs></symbol></svg>